<svg xmlns="http://www.w3.org/2000/svg" viewBox="0 0 64 64">
  <!-- Power-Shop-Signet (Favicon): schwarzes Quadrat, orange „PS“-Monogramm als Pfade -->
  <rect width="64" height="64" rx="4" fill="#0a0a0a"/>
  <path fill="#f26722" d="M12 14h13c6.6 0 10.5 3.6 10.5 9.4S31.6 33 25 33h-5.4v17H12V14zm7.6 6.4v6.2h4.8c2.2 0 3.4-1.1 3.4-3.1s-1.2-3.1-3.4-3.1h-4.8z"/>
  <path fill="#ffffff" d="M38.6 40.6c1.9 2 4.3 3.3 6.9 3.3 2.2 0 3.3-.9 3.3-2.2 0-1.4-1-2-4.4-3.1-4.5-1.5-7.4-3.5-7.4-8 0-4.6 3.8-7.6 9-7.6 3.5 0 6.4 1.2 8.5 3.4l-4 4.4c-1.4-1.4-3.2-2.2-4.9-2.2-1.8 0-2.8.8-2.8 2 0 1.3 1.1 1.8 4.4 2.9 4.7 1.6 7.5 3.6 7.5 8.1 0 4.8-3.9 7.9-9.6 7.9-4.1 0-7.9-1.7-10.3-4.5l3.8-4.4z"/>
</svg>
